<svg width="23" height="21" viewBox="0 0 23 21" fill="none" xmlns="http://www.w3.org/2000/svg">
<path fill-rule="evenodd" clip-rule="evenodd" d="M4.32841 3.52822C4.0306 2.09498 5.12483 0.75 6.58869 0.75H16.5375C18.0013 0.75 19.0956 2.09498 18.7978 3.52822L16.8409 12.9458C16.3212 15.4468 14.1175 17.2397 11.5631 17.2397C9.00869 17.2397 6.80501 15.4468 6.28532 12.9458L4.32841 3.52822ZM6.58869 2.72876C6.37957 2.72876 6.22325 2.9209 6.26579 3.12565L8.2227 12.5433C8.55162 14.1262 9.94636 15.2609 11.5631 15.2609C13.1798 15.2609 14.5746 14.1262 14.9035 12.5433L16.8604 3.12565C16.9029 2.9209 16.7466 2.72876 16.5375 2.72876H6.58869Z" fill="#000"/>
<path fill-rule="evenodd" clip-rule="evenodd" d="M0.225331 6.7739C-0.000408247 5.7079 0.812691 4.70459 1.90232 4.70459H5.32243V6.68335H2.23755C2.8849 9.10836 4.92749 10.9249 7.43526 11.2682L7.738 11.3096L7.46966 13.2701L7.16692 13.2286C3.7229 12.7572 0.945482 10.1746 0.225331 6.7739Z" fill="#000"/>
<path fill-rule="evenodd" clip-rule="evenodd" d="M22.8938 6.7739C23.1195 5.7079 22.3064 4.70459 21.2168 4.70459H17.7967V6.68335H20.8816C20.2342 9.10836 18.1916 10.9249 15.6839 11.2682L15.3811 11.3096L15.6495 13.2701L15.9522 13.2286C19.3962 12.7572 22.1737 10.1746 22.8938 6.7739Z" fill="#000"/>
<path d="M7.60938 19.8766C7.60938 19.3302 8.05234 18.8872 8.59875 18.8872H14.535C15.0815 18.8872 15.5244 19.3302 15.5244 19.8766C15.5244 20.423 15.0815 20.866 14.535 20.866H8.59875C8.05234 20.866 7.60938 20.423 7.60938 19.8766Z" fill="#000"/>
</svg>
