<svg width="43" height="43" viewBox="0 0 43 43" fill="none" xmlns="http://www.w3.org/2000/svg">
<path fill-rule="evenodd" clip-rule="evenodd" d="M8.26912 13.4041C6.44233 13.4041 4.96143 14.885 4.96143 16.7118V30.7695C4.96143 32.5963 6.44233 34.0772 8.26912 34.0772H34.7307C36.5574 34.0772 38.0383 32.5963 38.0383 30.7695V16.7118C38.0383 14.8851 36.5574 13.4041 34.7307 13.4041H31.1441C30.2887 13.4041 29.4937 12.9635 29.0404 12.2382L28.6424 11.6015C27.7358 10.1508 26.1457 9.26953 24.4351 9.26953H18.5647C16.854 9.26953 15.264 10.1508 14.3573 11.6015L13.9594 12.2382C13.5061 12.9635 12.711 13.4041 11.8557 13.4041H8.26912ZM21.5003 27.8517C24.3547 27.8517 26.6686 25.5378 26.6686 22.6834C26.6686 19.8291 24.3547 17.5151 21.5003 17.5151C18.6459 17.5151 16.332 19.8291 16.332 22.6834C16.332 25.5378 18.6459 27.8517 21.5003 27.8517Z" fill="#000"/>
</svg>
